<svg width="25" height="25" viewBox="0 0 25 25" fill="none" xmlns="http://www.w3.org/2000/svg">
<g id="calendar">
<g id="Group 633289">
<g id="Group 633441">
<rect id="Rectangle 6492" x="6.34326" y="12.6863" width="1.84568" height="1.84568" rx="0.5" fill="#A0A6B4"/>
<rect id="Rectangle 6501" x="11.0771" y="12.6863" width="1.84568" height="1.84568" rx="0.5" fill="#A0A6B4"/>
<rect id="Rectangle 6502" x="15.811" y="12.6863" width="1.84568" height="1.84568" rx="0.5" fill="#A0A6B4"/>
</g>
<g id="Group 633442">
<rect id="Rectangle 6492_2" x="6.34326" y="16.1425" width="1.84568" height="1.84568" rx="0.5" fill="#A0A6B4"/>
<rect id="Rectangle 6501_2" x="11.0771" y="16.1425" width="1.84568" height="1.84568" rx="0.5" fill="#A0A6B4"/>
</g>
<path id="Icon" d="M19.9998 10.4655H4M15.5554 3.57324V7.01936M8.4444 3.57324V7.01936M8.26662 20.8038H15.7332C17.2267 20.8038 17.9734 20.8038 18.5438 20.5221C19.0456 20.2743 19.4535 19.8789 19.7092 19.3926C19.9998 18.8398 19.9998 18.116 19.9998 16.6685V9.43164C19.9998 7.98414 19.9998 7.26039 19.7092 6.70751C19.4535 6.22119 19.0456 5.8258 18.5438 5.578C17.9734 5.2963 17.2267 5.2963 15.7332 5.2963H8.26662C6.77316 5.2963 6.02644 5.2963 5.45601 5.578C4.95425 5.8258 4.54631 6.22119 4.29065 6.70751C4 7.26039 4 7.98414 4 9.43164V16.6685C4 18.116 4 18.8398 4.29065 19.3926C4.54631 19.8789 4.95425 20.2743 5.45601 20.5221C6.02644 20.8038 6.77316 20.8038 8.26662 20.8038Z" stroke="#A0A6B4" stroke-width="1.4" stroke-linecap="round" stroke-linejoin="round"/>
</g>
</g>
</svg>
