<svg width="25" height="24" viewBox="0 0 25 24" fill="none" xmlns="http://www.w3.org/2000/svg">
<g id="calendar">
<g id="Group 633289">
<g id="Group 633441">
<rect id="Rectangle 6492" x="6.84349" y="12.6131" width="1.84568" height="1.84568" rx="0.5" fill="#1A1C1E"/>
<rect id="Rectangle 6501" x="11.5773" y="12.6131" width="1.84568" height="1.84568" rx="0.5" fill="#1A1C1E"/>
<rect id="Rectangle 6502" x="16.3112" y="12.6131" width="1.84568" height="1.84568" rx="0.5" fill="#1A1C1E"/>
</g>
<g id="Group 633442">
<rect id="Rectangle 6492_2" x="6.84349" y="16.0692" width="1.84568" height="1.84568" rx="0.5" fill="#1A1C1E"/>
<rect id="Rectangle 6501_2" x="11.5773" y="16.0692" width="1.84568" height="1.84568" rx="0.5" fill="#1A1C1E"/>
</g>
<path id="Icon" d="M20.5001 10.3922H4.50023M16.0557 3.5V6.94612M8.94463 3.5V6.94612M8.76685 20.7306H16.2334C17.7269 20.7306 18.4736 20.7306 19.0441 20.4489C19.5458 20.2011 19.9538 19.8057 20.2094 19.3194C20.5001 18.7665 20.5001 18.0428 20.5001 16.5953V9.3584C20.5001 7.9109 20.5001 7.18714 20.2094 6.63427C19.9538 6.14795 19.5458 5.75256 19.0441 5.50476C18.4736 5.22306 17.7269 5.22306 16.2334 5.22306H8.76685C7.27339 5.22306 6.52666 5.22306 5.95624 5.50476C5.45448 5.75256 5.04653 6.14795 4.79088 6.63427C4.50023 7.18714 4.50023 7.9109 4.50023 9.3584V16.5953C4.50023 18.0428 4.50023 18.7665 4.79088 19.3194C5.04653 19.8057 5.45448 20.2011 5.95624 20.4489C6.52666 20.7306 7.27339 20.7306 8.76685 20.7306Z" stroke="#1A1C1E" stroke-width="1.4" stroke-linecap="round" stroke-linejoin="round"/>
</g>
</g>
</svg>
