<svg width="25" height="24" viewBox="0 0 25 24" fill="none" xmlns="http://www.w3.org/2000/svg">
<rect x="6.84351" y="12.6131" width="1.84568" height="1.84568" rx="0.5" fill="#1A1C1E"/>
<rect x="11.5773" y="12.6132" width="1.84568" height="1.84568" rx="0.5" fill="#1A1C1E"/>
<rect x="16.3112" y="12.6132" width="1.84568" height="1.84568" rx="0.5" fill="#1A1C1E"/>
<rect x="6.84351" y="16.0692" width="1.84568" height="1.84568" rx="0.5" fill="#1A1C1E"/>
<rect x="11.5773" y="16.0692" width="1.84568" height="1.84568" rx="0.5" fill="#1A1C1E"/>
<path d="M20.5001 10.3923H4.50024M16.0557 3.50003V6.94615M8.94464 3.50003V6.94615M8.76687 20.7306H16.2335C17.7269 20.7306 18.4736 20.7306 19.0441 20.4489C19.5458 20.2011 19.9538 19.8057 20.2094 19.3194C20.5001 18.7665 20.5001 18.0428 20.5001 16.5953V9.35843C20.5001 7.91093 20.5001 7.18717 20.2094 6.6343C19.9538 6.14798 19.5458 5.75259 19.0441 5.50479C18.4736 5.22309 17.7269 5.22309 16.2335 5.22309H8.76687C7.27341 5.22309 6.52668 5.22309 5.95625 5.50479C5.45449 5.75259 5.04655 6.14798 4.79089 6.6343C4.50024 7.18717 4.50024 7.91093 4.50024 9.35843V16.5953C4.50024 18.0428 4.50024 18.7665 4.79089 19.3194C5.04655 19.8057 5.45449 20.2011 5.95625 20.4489C6.52668 20.7306 7.27341 20.7306 8.76687 20.7306Z" stroke="#1A1C1E" stroke-width="1.4" stroke-linecap="round" stroke-linejoin="round"/>
</svg>
