<svg width="25" height="25" viewBox="0 0 25 25" fill="none" xmlns="http://www.w3.org/2000/svg">
<g id="dollar">
<g id="Group 633248">
<path id="Icon" d="M22.0807 12.1238L20.5918 13.3964M20.5918 13.3964L19.0673 12.2247M20.5918 13.3964C20.6226 13.1179 20.6384 12.8348 20.6384 12.548C20.6384 8.33088 17.2197 4.91223 13.0026 4.91223C10.1729 4.91223 7.70261 6.45154 6.38354 8.73851" stroke="#1A1C1E" stroke-width="1.2" stroke-linecap="round" stroke-linejoin="round"/>
<path id="Icon_2" d="M3.95285 12.6894L5.44173 11.4168M5.44173 11.4168L6.96617 12.5885M5.44173 11.4168C5.41093 11.6954 5.39512 11.9785 5.39512 12.2652C5.39512 16.4824 8.81377 19.901 13.0309 19.901C15.9642 19.901 18.5111 18.247 19.79 15.8208" stroke="#1A1C1E" stroke-width="1.2" stroke-linecap="round" stroke-linejoin="round"/>
<path id="Vector" d="M13.7493 17.2865C13.8278 17.2865 13.9161 17.2558 13.9848 17.2047C14.1613 17.0718 14.1908 16.8061 14.0632 16.6323L11.552 13.1977H11.7875C12.9548 13.1977 13.9161 12.3084 14.1123 11.1533H15.3679C15.5837 11.1533 15.7603 10.9693 15.7603 10.7444C15.7603 10.5195 15.5837 10.3355 15.3679 10.3355H14.1123C14.0338 9.86533 13.8376 9.44622 13.5433 9.1089H15.3679C15.5837 9.1089 15.7603 8.9249 15.7603 8.70002C15.7603 8.47513 15.5837 8.29114 15.3679 8.29114H11.7875H10.7575C10.5417 8.29114 10.3651 8.47513 10.3651 8.70002C10.3651 8.9249 10.5417 9.1089 10.7575 9.1089H11.7875C12.5133 9.1089 13.1313 9.63022 13.3079 10.3355H10.7575C10.5417 10.3355 10.3651 10.5195 10.3651 10.7444C10.3651 10.9693 10.5417 11.1533 10.7575 11.1533H13.3079C13.1313 11.8586 12.5232 12.3799 11.7875 12.3799H10.7575C10.6103 12.3799 10.473 12.4719 10.4043 12.6048C10.3357 12.7479 10.3553 12.9115 10.4436 13.0341L13.4354 17.1229C13.5139 17.2252 13.6316 17.2865 13.7493 17.2865Z" fill="#1A1C1E" stroke="#1A1C1E" stroke-width="0.4"/>
</g>
</g>
</svg>
