<svg width="25" height="25" viewBox="0 0 25 25" fill="none" xmlns="http://www.w3.org/2000/svg">
<path d="M22.0805 12.1238L20.5917 13.3964M20.5917 13.3964L19.0672 12.2247M20.5917 13.3964C20.6225 13.1179 20.6383 12.8348 20.6383 12.548C20.6383 8.33088 17.2196 4.91223 13.0025 4.91223C10.1727 4.91223 7.70248 6.45154 6.38342 8.73851" stroke="#A0A6B4" stroke-width="1.2" stroke-linecap="round" stroke-linejoin="round"/>
<path d="M3.95285 12.6894L5.44173 11.4168M5.44173 11.4168L6.96617 12.5885M5.44173 11.4168C5.41093 11.6954 5.39512 11.9785 5.39512 12.2652C5.39512 16.4824 8.81377 19.901 13.0309 19.901C15.9642 19.901 18.5111 18.247 19.79 15.8208" stroke="#A0A6B4" stroke-width="1.2" stroke-linecap="round" stroke-linejoin="round"/>
<path d="M13.7492 17.2865C13.8277 17.2865 13.916 17.2558 13.9846 17.2047C14.1612 17.0718 14.1906 16.8061 14.0631 16.6323L11.5519 13.1977H11.7873C12.9546 13.1977 13.916 12.3084 14.1122 11.1533H15.3678C15.5836 11.1533 15.7601 10.9693 15.7601 10.7444C15.7601 10.5195 15.5836 10.3355 15.3678 10.3355H14.1122C14.0337 9.86533 13.8375 9.44622 13.5432 9.1089H15.3678C15.5836 9.1089 15.7601 8.9249 15.7601 8.70002C15.7601 8.47513 15.5836 8.29114 15.3678 8.29114H11.7873H10.7573C10.5415 8.29114 10.365 8.47513 10.365 8.70002C10.365 8.9249 10.5415 9.1089 10.7573 9.1089H11.7873C12.5132 9.1089 13.1312 9.63022 13.3078 10.3355H10.7573C10.5415 10.3355 10.365 10.5195 10.365 10.7444C10.365 10.9693 10.5415 11.1533 10.7573 11.1533H13.3078C13.1312 11.8586 12.523 12.3799 11.7873 12.3799H10.7573C10.6102 12.3799 10.4729 12.4719 10.4042 12.6048C10.3355 12.7479 10.3552 12.9115 10.4434 13.0341L13.4353 17.1229C13.5138 17.2252 13.6315 17.2865 13.7492 17.2865Z" fill="#A0A6B4" stroke="#A0A6B4" stroke-width="0.4"/>
</svg>
