<svg width="25" height="24" viewBox="0 0 25 24" fill="none" xmlns="http://www.w3.org/2000/svg">
<g id="earnings">
<g id="Group 633248">
<path id="Icon" d="M21.5805 12.0505L20.0916 13.3232M20.0916 13.3232L18.5671 12.1515M20.0916 13.3232C20.1224 13.0446 20.1382 12.7615 20.1382 12.4748C20.1382 8.25764 16.7195 4.83899 12.5024 4.83899C9.67266 4.83899 7.20241 6.3783 5.88335 8.66526" stroke="#1A1C1E" stroke-width="1.2" stroke-linecap="round" stroke-linejoin="round"/>
<path id="Icon_2" d="M3.45267 12.6161L4.94154 11.3435M4.94154 11.3435L6.46599 12.5152M4.94154 11.3435C4.91075 11.6221 4.89494 11.9052 4.89494 12.1919C4.89494 16.409 8.31359 19.8277 12.5307 19.8277C15.464 19.8277 18.0109 18.1737 19.2899 15.7475" stroke="#1A1C1E" stroke-width="1.2" stroke-linecap="round" stroke-linejoin="round"/>
<path id="Vector" d="M13.2491 17.2132C13.3276 17.2132 13.4159 17.1825 13.4846 17.1314C13.6611 16.9985 13.6906 16.7328 13.563 16.559L11.0518 13.1244H11.2873C12.4546 13.1244 13.4159 12.2351 13.6121 11.08H14.8677C15.0835 11.08 15.2601 10.896 15.2601 10.6711C15.2601 10.4462 15.0835 10.2622 14.8677 10.2622H13.6121C13.5336 9.79202 13.3374 9.37292 13.0431 9.03559H14.8677C15.0835 9.03559 15.2601 8.8516 15.2601 8.62671C15.2601 8.40183 15.0835 8.21783 14.8677 8.21783H11.2873H10.2573C10.0415 8.21783 9.86491 8.40183 9.86491 8.62671C9.86491 8.8516 10.0415 9.03559 10.2573 9.03559H11.2873C12.0132 9.03559 12.6312 9.55692 12.8077 10.2622H10.2573C10.0415 10.2622 9.86491 10.4462 9.86491 10.6711C9.86491 10.896 10.0415 11.08 10.2573 11.08H12.8077C12.6312 11.7853 12.023 12.3066 11.2873 12.3066H10.2573C10.1101 12.3066 9.97281 12.3986 9.90414 12.5315C9.83548 12.6746 9.8551 12.8382 9.94338 12.9608L12.9352 17.0496C13.0137 17.1519 13.1314 17.2132 13.2491 17.2132Z" fill="#1A1C1E" stroke="#1A1C1E" stroke-width="0.4"/>
</g>
</g>
</svg>
