<svg width="25" height="25" viewBox="0 0 25 25" fill="none" xmlns="http://www.w3.org/2000/svg">
<g id="home-line">
<path id="Icon" d="M12.5781 3.05005C12.5906 3.05344 12.6086 3.06081 12.6738 3.10571L13.0527 3.38989L19.835 8.66528C20.1982 8.94783 20.3637 9.08108 20.4629 9.18286L20.5449 9.27856C20.6154 9.3738 20.6728 9.4778 20.7148 9.58813L20.752 9.70142C20.7939 9.85147 20.7998 10.0248 20.7998 10.6379V17.8733C20.7998 18.4449 20.7998 18.8318 20.7754 19.1301C20.7576 19.3478 20.7287 19.4834 20.6943 19.5793L20.6582 19.6633C20.5492 19.8773 20.3832 20.056 20.1797 20.1809L20.0898 20.2317C19.9911 20.2819 19.8465 20.3242 19.5566 20.3479C19.2583 20.3723 18.8714 20.3733 18.2998 20.3733H6.7002C6.12859 20.3733 5.74175 20.3723 5.44336 20.3479C5.22584 20.3301 5.09007 20.3022 4.99414 20.2678L4.91016 20.2317C4.69614 20.1226 4.51651 19.9568 4.3916 19.7532L4.3418 19.6633C4.29149 19.5646 4.24832 19.4201 4.22461 19.1301C4.20023 18.8318 4.2002 18.4449 4.2002 17.8733V10.6379C4.2002 10.1777 4.20322 9.96526 4.22266 9.82446L4.24805 9.70142C4.28004 9.58713 4.32724 9.47733 4.38867 9.37622L4.45508 9.27856C4.50147 9.21583 4.55756 9.15633 4.66309 9.06567L5.16504 8.66528L11.9473 3.38989C12.1484 3.23347 12.2611 3.15058 12.3262 3.10571L12.4219 3.05005C12.4474 3.04317 12.4738 3.04028 12.5 3.04028L12.5781 3.05005Z" stroke="#A0A6B4" stroke-width="1.4" stroke-linecap="round" stroke-linejoin="round"/>
<path id="Icon_2" d="M9 17.0735H16" stroke="#A0A6B4" stroke-width="1.5" stroke-linecap="round" stroke-linejoin="round"/>
</g>
</svg>
