<svg width="19" height="19" viewBox="0 0 19 19" fill="none" xmlns="http://www.w3.org/2000/svg">
<g id="share">
<path id="Icon" d="M6.9425 10.7057L12.065 13.6907M12.0575 5.45574L6.9425 8.44074M16.25 4.32324C16.25 5.56588 15.2426 6.57324 14 6.57324C12.7574 6.57324 11.75 5.56588 11.75 4.32324C11.75 3.0806 12.7574 2.07324 14 2.07324C15.2426 2.07324 16.25 3.0806 16.25 4.32324ZM7.25 9.57324C7.25 10.8159 6.24264 11.8232 5 11.8232C3.75736 11.8232 2.75 10.8159 2.75 9.57324C2.75 8.3306 3.75736 7.32324 5 7.32324C6.24264 7.32324 7.25 8.3306 7.25 9.57324ZM16.25 14.8232C16.25 16.0659 15.2426 17.0732 14 17.0732C12.7574 17.0732 11.75 16.0659 11.75 14.8232C11.75 13.5806 12.7574 12.5732 14 12.5732C15.2426 12.5732 16.25 13.5806 16.25 14.8232Z" stroke="white" stroke-linecap="round" stroke-linejoin="round"/>
</g>
</svg>
